<svg width="25" height="25" viewBox="0 0 25 25" fill="none" xmlns="http://www.w3.org/2000/svg">
<path d="M24.6004 11.5286L15.572 2.50001C15.3143 2.24229 14.9708 2.10083 14.6045 2.10083C14.2379 2.10083 13.8946 2.2425 13.6369 2.50001L12.8172 3.31993C12.5596 3.57724 12.4178 3.92094 12.4178 4.2874C12.4178 4.65365 12.5596 5.00894 12.8172 5.26625L18.0842 10.5449H1.3506C0.596133 10.5449 0 11.1355 0 11.8902V13.0493C0 13.804 0.596133 14.4542 1.3506 14.4542H18.1439L12.8174 19.7623C12.5598 20.02 12.418 20.3543 12.418 20.7208C12.418 21.0869 12.5598 21.4261 12.8174 21.6836L13.6371 22.5009C13.8948 22.7586 14.2381 22.899 14.6047 22.899C14.971 22.899 15.3145 22.7568 15.5722 22.499L24.6006 13.4707C24.8589 13.2121 25.001 12.867 25 12.5001C25.0008 12.132 24.8589 11.7867 24.6004 11.5286Z" fill="#FF8D2B"/>
</svg>
